<?xml version="1.0" encoding="UTF-8" standalone="no"?>
<!-- Created with Inkscape (http://www.inkscape.org/) -->

<svg
   xmlns:dc="http://purl.org/dc/elements/1.1/"
   xmlns:cc="http://creativecommons.org/ns#"
   xmlns:rdf="http://www.w3.org/1999/02/22-rdf-syntax-ns#"
   xmlns:svg="http://www.w3.org/2000/svg"
   xmlns="http://www.w3.org/2000/svg"
   xmlns:sodipodi="http://sodipodi.sourceforge.net/DTD/sodipodi-0.dtd"
   xmlns:inkscape="http://www.inkscape.org/namespaces/inkscape"
   width="210mm"
   height="297mm"
   viewBox="0 0 210 297"
   version="1.1"
   id="svg8"
   inkscape:version="0.92.3 (2405546, 2018-03-11)"
   sodipodi:docname="telebot.svg"
   inkscape:export-filename="C:\Users\op915196814\Desktop\telebot.svg.png"
   inkscape:export-xdpi="96"
   inkscape:export-ydpi="96">
  <defs
     id="defs2" />
  <sodipodi:namedview
     id="base"
     pagecolor="#ffffff"
     bordercolor="#666666"
     borderopacity="1.0"
     inkscape:pageopacity="0.0"
     inkscape:pageshadow="2"
     inkscape:zoom="0.49497475"
     inkscape:cx="26.465381"
     inkscape:cy="606.49762"
     inkscape:document-units="mm"
     inkscape:current-layer="layer1"
     showgrid="false"
     inkscape:window-width="1280"
     inkscape:window-height="1002"
     inkscape:window-x="1912"
     inkscape:window-y="-8"
     inkscape:window-maximized="1" />
  <metadata
     id="metadata5">
    <rdf:RDF>
      <cc:Work
         rdf:about="">
        <dc:format>image/svg+xml</dc:format>
        <dc:type
           rdf:resource="http://purl.org/dc/dcmitype/StillImage" />
        <dc:title></dc:title>
      </cc:Work>
    </rdf:RDF>
  </metadata>
  <g
     inkscape:label="Layer 1"
     inkscape:groupmode="layer"
     id="layer1">
    <path
       style="fill:#070707;fill-opacity:1;stroke:none;stroke-width:0.26458332px;stroke-linecap:butt;stroke-linejoin:miter;stroke-opacity:1"
       d="m 49.136905,77.017855 1.511904,38.553575 16.630951,37.04166 18.142857,22.67858 18.136073,12.18363 31.00083,-28.81459 18.89881,-38.55357 2.57954,-39.347314 -39.6212,-10.545541 -38.553577,2.267858 z"
       id="path5505"
       inkscape:connector-curvature="0"
       sodipodi:nodetypes="ccccccccccc" />
    <path
       style="fill:#d15c22;fill-opacity:1;stroke-width:0.20991737;stroke:none;stroke-opacity:1;"
       d="M 99.148744,189.07892 C 78.306801,175.23837 63.134223,157.22143 53.961434,135.42046 49.23336,124.18325 46.312036,112.15035 44.991884,98.474997 c -0.336638,-3.4872 -0.362771,-22.70763 -0.03194,-23.4937 0.244512,-0.58098 1.36642,-0.92089 9.099696,-2.75697 13.046496,-3.09758 25.002306,-4.92725 36.945456,-5.65397 4.464261,-0.27165 16.949884,-0.27154 21.411574,1.8e-4 12.55857,0.76482 25.06853,2.60912 39.25455,5.78716 8.70793,1.9508 9.06844,2.05247 9.31417,2.62655 0.13813,0.32271 0.2185,4.25312 0.22279,10.89571 0.007,10.94134 -0.0942,12.69572 -1.15691,20.047113 -4.65881,32.22721 -21.0189,59.48479 -47.49389,79.12969 -4.06225,3.01426 -8.98961,6.20172 -9.58699,6.20172 -0.33407,0 -1.78949,-0.83006 -3.821643,-2.17956 z m 7.246236,-8.55634 c 12.39353,-8.27824 22.62042,-18.40991 30.26991,-29.98807 8.26458,-12.50915 13.65126,-26.84432 15.93375,-42.40331 0.8718,-5.94272 1.05272,-8.969593 1.04143,-17.423143 -0.006,-4.56045 -0.1005,-8.66444 -0.2098,-9.11998 l -0.19873,-0.82825 -2.30207,-0.58408 c -33.66954,-8.54272 -60.234022,-8.6016 -95.145242,-0.21091 -1.880111,0.45187 -3.456516,0.85972 -3.503121,0.90633 -0.04661,0.0466 -0.188433,2.38334 -0.315171,5.19276 -0.732888,16.245893 1.893832,32.320533 7.602159,46.522643 7.127285,17.73244 19.122015,32.98864 35.320469,44.92441 2.92488,2.15519 7.531986,5.14088 7.932696,5.14088 0.21226,0 1.82044,-0.95817 3.57372,-2.12928 z"
       id="path3777"
       inkscape:connector-curvature="0" />
    <path
       inkscape:connector-curvature="0"
       id="path3822"
       d="m 101.56722,162.55065 c -2.562413,-0.68457 -3.948893,-2.33376 -8.236943,-9.79783 -1.52615,-2.6565 -3.33858,-5.64507 -4.02762,-6.64126 -0.68904,-0.99619 -2.92715,-4.70068 -4.97357,-8.23222 -3.99755,-6.89861 -4.36757,-8.16506 -3.10117,-10.614 1.10538,-2.13757 2.2642,-2.35838 11.50812,-2.19281 4.5382,0.0812 8.704083,0.32884 9.257523,0.55011 0.55343,0.22126 1.35641,0.87927 1.78441,1.46225 0.84649,1.15305 1.20604,4.26642 0.61932,5.36272 -0.63346,1.18363 -2.92606,1.94119 -6.747683,2.22968 -2.03834,0.15387 -3.70607,0.36656 -3.70607,0.47264 0,0.38229 9.464383,16.58235 9.691843,16.58941 0.12824,0.005 0.66998,-0.94368 1.20397,-2.1059 0.53399,-1.16222 1.92935,-3.78926 3.1008,-5.83787 1.17145,-2.0486 2.24763,-4.04098 2.3915,-4.4275 0.14391,-0.38651 2.3114,-4.26936 4.81674,-8.62855 2.50535,-4.35919 4.55517,-8.12895 4.55517,-8.37725 0,-0.2483 2.19909,-4.28895 4.88684,-8.97921 5.24155,-9.14676 8.47721,-15.221669 8.23598,-15.462899 -0.15333,-0.15332 -19.97157,-0.12504 -51.964093,0.0742 -17.149673,0.1068 -18.205083,0.0715 -19.853703,-0.66276 -3.15911,-1.40718 -3.64763,-4.90846 -1.07026,-7.67076 0.56802,-0.60878 1.25184,-1.13149 1.51961,-1.16158 0.26776,-0.0301 10.53928,-0.095 22.825603,-0.14423 12.28632,-0.0492 29.312083,-0.13305 37.835023,-0.18623 22.50086,-0.14043 20.389,-0.27682 21.98937,1.42008 2.13564,2.26443 1.93424,3.74554 -1.30967,9.63135 -1.46412,2.656499 -3.78549,7.003509 -5.15862,9.660009 -1.37312,2.6565 -4.53823,8.44024 -7.03358,12.85277 -2.49534,4.41252 -4.59306,8.31396 -4.6616,8.66986 -1.37533,2.76831 0,0 -1.37533,2.76831 -0.68788,1.16666 -2.18112,3.8763 -3.3183,6.0214 -1.13717,2.1451 -3.33936,6.16424 -4.89377,8.93143 -1.55438,2.76719 -3.61496,6.61004 -4.57904,8.53967 -1.89697,3.7968 -3.29193,5.17958 -5.96071,5.90856 -1.85016,0.5054 -2.28564,0.50318 -4.25009,-0.0216 z M 71.339154,115.23066 c -1.81941,-1.49532 -1.93488,-1.69829 -1.94197,-3.4133 -0.008,-2.00399 0.62472,-3.2644 2.06745,-4.11664 1.07757,-0.63654 2.89141,-0.72894 17.776333,-0.9056 9.11698,-0.10816 16.607223,-0.22739 16.644983,-0.26485 0.0377,-0.0374 1.43153,0.0231 3.0973,0.13463 2.78111,0.18623 3.1456,0.31619 4.45948,1.5899 1.21243,1.17535 1.43083,1.65737 1.43083,3.15786 0,2.18047 -1.12388,3.89399 -2.9249,4.45941 -0.79789,0.25049 -8.64507,0.41917 -20.283243,0.43599 l -18.981883,0.0275 -1.34438,-1.10492 z"
       style="fill:#cf5a20;fill-opacity:1;stroke-width:0.40250027"
       sodipodi:nodetypes="ccscccccccscscccsscsccccccccscccccccccccccccsccccc" />
  </g>
</svg>
